<svg xmlns="http://www.w3.org/2000/svg" width="206" height="60" viewBox="0 0 206 60" fill="none">
  <path d="M203.992 53.0511C203.992 56.1952 201.392 58.7421 198.176 58.7421H7.85349C4.6392 58.7421 2.03015 56.1952 2.03015 53.0511V7.66696C2.03015 4.52427 4.6392 1.96851 7.85349 1.96851H198.174C201.392 1.96851 203.99 4.52427 203.99 7.66696L203.992 53.0511Z" fill="black"/>
  <path d="M197.562 2.03707C201.064 2.03707 203.914 4.8156 203.914 8.23023V52.4802C203.914 55.8948 201.064 58.6734 197.562 58.6734H8.45961C4.95743 58.6734 2.10765 55.8948 2.10765 52.4802V8.23023C2.10765 4.8156 4.95743 2.03707 8.45961 2.03707H197.562ZM197.562 0.85523H8.45961C4.30125 0.85523 0.895508 4.17582 0.895508 8.23023V52.4802C0.895508 56.5346 4.30125 59.8552 8.45961 59.8552H197.562C201.721 59.8552 205.126 56.5346 205.126 52.4802V8.23023C205.126 4.17582 201.721 0.85523 197.562 0.85523Z" fill="#6E7979"/>
  <path d="M46.4738 30.0367C46.4299 25.2828 50.4661 22.97 50.6507 22.8623C48.3648 19.6129 44.8218 19.1689 43.5767 19.1335C40.601 18.8282 37.7145 20.8696 36.1987 20.8696C34.6526 20.8696 32.3183 19.163 29.8025 19.2132C26.5651 19.2618 23.5364 21.0894 21.8753 23.9273C18.4473 29.7137 21.0039 38.2171 24.2883 42.8943C25.9312 45.185 27.851 47.7426 30.3638 47.6526C32.8221 47.5538 33.7404 46.1245 36.707 46.1245C39.6464 46.1245 40.5087 47.6526 43.0714 47.5951C45.7098 47.5538 47.3709 45.2941 48.9563 42.9828C50.8549 40.3573 51.6174 37.7716 51.6476 37.6389C51.5856 37.6182 46.5237 35.7346 46.4738 30.0367Z" fill="white"/>
  <path d="M41.6327 16.0567C42.955 14.4445 43.8596 12.2512 43.6085 10.0254C41.6948 10.108 39.3015 11.316 37.9233 12.8928C36.704 14.2822 35.6147 16.5596 35.8961 18.7013C38.0459 18.8577 40.2531 17.6438 41.6327 16.0567Z" fill="white"/>
  <path d="M82.0507 47.3236H78.6151L76.7332 41.5579H70.1917L68.399 47.3236H65.0542L71.5351 27.6943H75.538L82.0507 47.3236ZM76.1659 39.1389L74.4639 34.0132C74.2839 33.4896 73.9466 32.2565 73.4488 30.3154H73.3883C73.1901 31.1503 72.8709 32.3834 72.4322 34.0132L70.7606 39.1389H76.1659Z" fill="white"/>
  <path d="M98.7175 40.0725C98.7175 42.4797 98.0503 44.3824 96.716 45.7793C95.5209 47.0227 94.0368 47.6437 92.2653 47.6437C90.3531 47.6437 88.9794 46.974 88.1428 45.6347H88.0823V53.0908H84.857V37.829C84.857 36.3157 84.8162 34.7625 84.7375 33.1695H87.574L87.7541 35.413H87.8146C88.8902 33.7226 90.5225 32.8789 92.7131 32.8789C94.4256 32.8789 95.8552 33.5382 96.9989 34.8584C98.1456 36.18 98.7175 37.9175 98.7175 40.0725ZM95.4316 40.1875C95.4316 38.8099 95.1139 37.6741 94.4755 36.7803C93.7781 35.8481 92.8417 35.382 91.6677 35.382C90.872 35.382 90.1488 35.6416 89.5029 36.1534C88.8554 36.6697 88.4318 37.3437 88.2336 38.1786C88.1338 38.568 88.0838 38.8866 88.0838 39.1373V41.4973C88.0838 42.5269 88.4076 43.3957 89.0551 44.1051C89.7026 44.8146 90.5437 45.1686 91.5785 45.1686C92.7933 45.1686 93.7388 44.7114 94.415 43.7998C95.0927 42.8868 95.4316 41.6832 95.4316 40.1875Z" fill="white"/>
  <path d="M115.414 40.0725C115.414 42.4797 114.747 44.3824 113.412 45.7793C112.218 47.0227 110.734 47.6437 108.962 47.6437C107.05 47.6437 105.676 46.974 104.841 45.6347H104.781V53.0908H101.556V37.829C101.556 36.3157 101.515 34.7625 101.436 33.1695H104.273L104.453 35.413H104.513C105.587 33.7226 107.22 32.8789 109.412 32.8789C111.123 32.8789 112.552 33.5382 113.699 34.8584C114.841 36.18 115.414 37.9175 115.414 40.0725ZM112.129 40.1875C112.129 38.8099 111.809 37.6741 111.171 36.7803C110.474 35.8481 109.54 35.382 108.365 35.382C107.568 35.382 106.846 35.6416 106.198 36.1534C105.551 36.6697 105.129 37.3437 104.931 38.1786C104.832 38.568 104.781 38.8866 104.781 39.1373V41.4973C104.781 42.5269 105.105 43.3957 105.749 44.1051C106.397 44.8131 107.238 45.1686 108.276 45.1686C109.49 45.1686 110.436 44.7114 111.112 43.7998C111.79 42.8868 112.129 41.6832 112.129 40.1875Z" fill="white"/>
  <path d="M134.083 41.819C134.083 43.4887 133.488 44.8471 132.295 45.8959C130.983 47.0419 129.157 47.6142 126.811 47.6142C124.644 47.6142 122.907 47.2071 121.593 46.3915L122.34 43.7704C123.756 44.6052 125.31 45.0241 127.003 45.0241C128.217 45.0241 129.163 44.7557 129.842 44.2217C130.518 43.6878 130.856 42.9709 130.856 42.0771C130.856 41.2806 130.577 40.6095 130.019 40.0652C129.464 39.5209 128.537 39.015 127.242 38.5474C123.717 37.2656 121.956 35.388 121.956 32.9188C121.956 31.3052 122.573 29.9821 123.809 28.9525C125.041 27.9215 126.683 27.4067 128.738 27.4067C130.57 27.4067 132.092 27.718 133.307 28.3389L132.5 30.9025C131.366 30.3007 130.083 29.9998 128.647 29.9998C127.513 29.9998 126.626 30.2727 125.991 30.8155C125.454 31.3007 125.184 31.8922 125.184 32.5928C125.184 33.3687 125.491 34.0103 126.109 34.5148C126.646 34.9809 127.621 35.4853 129.037 36.0296C130.77 36.7096 132.042 37.5046 132.86 38.4161C133.676 39.3247 134.083 40.462 134.083 41.819Z" fill="white"/>
  <path d="M144.747 35.5295H141.191V42.4016C141.191 44.1494 141.818 45.0226 143.073 45.0226C143.65 45.0226 144.128 44.974 144.506 44.8766L144.595 47.2646C143.96 47.4962 143.123 47.6127 142.087 47.6127C140.813 47.6127 139.818 47.2337 139.099 46.477C138.384 45.7188 138.024 44.4474 138.024 42.6612V35.5266H135.906V33.1666H138.024V30.575L141.191 29.6428V33.1666H144.747V35.5295Z" fill="white"/>
  <path d="M160.787 40.13C160.787 42.3056 160.149 44.0918 158.875 45.4887C157.539 46.9268 155.766 47.6436 153.556 47.6436C151.426 47.6436 149.73 46.9548 148.465 45.5772C147.2 44.1995 146.568 42.4605 146.568 40.3645C146.568 38.1712 147.219 36.3746 148.524 34.9778C149.827 33.5795 151.585 32.8804 153.795 32.8804C155.925 32.8804 157.639 33.5692 158.932 34.9483C160.17 36.2861 160.787 38.0134 160.787 40.13ZM157.441 40.2318C157.441 38.9264 157.155 37.8069 156.575 36.8732C155.899 35.7433 154.932 35.1799 153.68 35.1799C152.383 35.1799 151.398 35.7448 150.722 36.8732C150.143 37.8083 149.857 38.9456 149.857 40.2908C149.857 41.5961 150.143 42.7157 150.722 43.6479C151.42 44.7777 152.394 45.3412 153.651 45.3412C154.882 45.3412 155.849 44.7659 156.547 43.6184C157.141 42.667 157.441 41.5357 157.441 40.2318Z" fill="white"/>
  <path d="M171.271 35.9351C170.952 35.8776 170.611 35.8481 170.254 35.8481C169.12 35.8481 168.242 36.2655 167.625 37.1018C167.088 37.8393 166.819 38.7715 166.819 39.897V47.3236H163.595L163.625 37.6269C163.625 35.9956 163.584 34.5103 163.504 33.171H166.313L166.431 35.8791H166.521C166.861 34.9483 167.398 34.199 168.133 33.6371C168.852 33.1311 169.628 32.8789 170.465 32.8789C170.763 32.8789 171.032 32.8996 171.271 32.9364V35.9351Z" fill="white"/>
  <path d="M185.696 39.5771C185.696 40.1405 185.658 40.6155 185.578 41.0034H175.902C175.939 42.4017 176.407 43.4711 177.305 44.2086C178.121 44.8679 179.175 45.1983 180.47 45.1983C181.903 45.1983 183.21 44.9756 184.385 44.5286L184.891 46.7116C183.517 47.2957 181.895 47.5863 180.024 47.5863C177.773 47.5863 176.006 46.9403 174.72 45.6496C173.437 44.359 172.794 42.6259 172.794 40.4517C172.794 38.3174 173.392 36.54 174.588 35.1226C175.841 33.6092 177.534 32.8525 179.664 32.8525C181.756 32.8525 183.34 33.6092 184.416 35.1226C185.267 36.3247 185.696 37.8115 185.696 39.5771ZM182.62 38.7614C182.641 37.8292 182.431 37.0238 181.994 36.3439C181.435 35.4692 180.578 35.0326 179.423 35.0326C178.369 35.0326 177.511 35.4589 176.856 36.3144C176.319 36.9943 176 37.81 175.902 38.7599H182.62V38.7614Z" fill="white"/>
  <path d="M75.0994 15.6186C75.0994 17.3546 74.5654 18.6615 73.4988 19.5391C72.511 20.3489 71.1071 20.7545 69.2886 20.7545C68.387 20.7545 67.6155 20.7162 66.9695 20.6395V11.1537C67.8121 11.021 68.7198 10.9531 69.7001 10.9531C71.4323 10.9531 72.7379 11.3204 73.6183 12.0549C74.6047 12.8854 75.0994 14.0728 75.0994 15.6186ZM73.4277 15.6613C73.4277 14.5359 73.1221 13.673 72.511 13.0712C71.8998 12.4709 71.0072 12.17 69.8317 12.17C69.3325 12.17 68.9074 12.2024 68.5549 12.2703V19.4816C68.7501 19.5111 69.1071 19.5244 69.626 19.5244C70.8393 19.5244 71.7757 19.1954 72.4353 18.5376C73.0949 17.8797 73.4277 16.921 73.4277 15.6613Z" fill="white"/>
  <path d="M83.963 17.1349C83.963 18.2042 83.6499 19.0804 83.0236 19.7677C82.367 20.4743 81.4971 20.8268 80.4109 20.8268C79.3641 20.8268 78.5305 20.489 77.9087 19.8105C77.2885 19.1335 76.9783 18.2795 76.9783 17.2499C76.9783 16.1732 77.2975 15.2896 77.939 14.6038C78.5804 13.9179 79.4427 13.5742 80.5289 13.5742C81.5758 13.5742 82.4169 13.912 83.0538 14.589C83.659 15.2469 83.963 16.0965 83.963 17.1349ZM82.3186 17.185C82.3186 16.5434 82.1764 15.9932 81.8935 15.5345C81.5607 14.9799 81.0872 14.7026 80.4714 14.7026C79.8345 14.7026 79.3504 14.9799 79.0176 15.5345C78.7332 15.9932 78.5925 16.5522 78.5925 17.213C78.5925 17.8547 78.7347 18.4048 79.0176 18.8636C79.361 19.4182 79.8391 19.6955 80.4563 19.6955C81.0614 19.6955 81.5365 19.4137 81.8784 18.8488C82.1718 18.3812 82.3186 17.8266 82.3186 17.185Z" fill="white"/>
  <path d="M95.8477 13.7158L93.6163 20.669H92.164L91.2396 17.6496C91.0052 16.8959 90.8145 16.1466 90.6663 15.4032H90.6375C90.4999 16.1673 90.3093 16.9151 90.0642 17.6496L89.0824 20.669H87.6134L85.5151 13.7158H87.1444L87.9508 17.0213C88.1459 17.803 88.3063 18.5479 88.4349 19.253H88.4636C88.5816 18.6718 88.7768 17.9314 89.0521 17.036L90.0642 13.7173H91.3561L92.3258 16.9652C92.5603 17.7573 92.7509 18.5199 92.8977 19.2544H92.9416C93.049 18.5391 93.2109 17.7765 93.4257 16.9652L94.291 13.7173H95.8477V13.7158Z" fill="white"/>
  <path d="M104.067 20.669H102.481V16.6865C102.481 15.4593 102.003 14.8457 101.044 14.8457C100.574 14.8457 100.194 15.0138 99.8991 15.3516C99.6071 15.6894 99.4588 16.0876 99.4588 16.5434V20.6675H97.8734V15.7027C97.8734 15.092 97.8537 14.4297 97.8159 13.7129H99.2092L99.2834 14.8H99.3272C99.5118 14.4622 99.7871 14.1834 100.149 13.9607C100.578 13.7011 101.059 13.5698 101.586 13.5698C102.251 13.5698 102.805 13.7793 103.245 14.1996C103.793 14.7144 104.067 15.4829 104.067 16.5036V20.669Z" fill="white"/>
  <path d="M108.439 20.669H106.855V10.5254H108.439V20.669Z" fill="white"/>
  <path d="M117.773 17.1349C117.773 18.2042 117.46 19.0804 116.834 19.7677C116.177 20.4743 115.306 20.8268 114.221 20.8268C113.173 20.8268 112.339 20.489 111.719 19.8105C111.098 19.1335 110.788 18.2795 110.788 17.2499C110.788 16.1732 111.108 15.2896 111.749 14.6038C112.39 13.9179 113.253 13.5742 114.337 13.5742C115.386 13.5742 116.225 13.912 116.864 14.589C117.469 15.2469 117.773 16.0965 117.773 17.1349ZM116.127 17.185C116.127 16.5434 115.985 15.9932 115.702 15.5345C115.371 14.9799 114.896 14.7026 114.281 14.7026C113.643 14.7026 113.159 14.9799 112.828 15.5345C112.543 15.9932 112.403 16.5522 112.403 17.213C112.403 17.8547 112.545 18.4048 112.828 18.8636C113.171 19.4182 113.649 19.6955 114.266 19.6955C114.871 19.6955 115.345 19.4137 115.687 18.8488C115.982 18.3812 116.127 17.8266 116.127 17.185Z" fill="white"/>
  <path d="M125.446 20.669H124.022L123.904 19.868H123.861C123.373 20.5067 122.679 20.8268 121.777 20.8268C121.104 20.8268 120.56 20.6159 120.15 20.197C119.778 19.8164 119.591 19.3429 119.591 18.781C119.591 17.9314 119.955 17.2838 120.685 16.8354C121.414 16.387 122.44 16.1673 123.761 16.1776V16.0478C123.761 15.1318 123.268 14.6746 122.28 14.6746C121.576 14.6746 120.956 14.8471 120.42 15.1893L120.098 14.1745C120.761 13.7748 121.579 13.5742 122.544 13.5742C124.408 13.5742 125.343 14.533 125.343 16.4505V19.0111C125.343 19.7058 125.378 20.2589 125.446 20.669ZM123.8 18.2795V17.2071C122.051 17.1776 121.177 17.6452 121.177 18.6084C121.177 18.9712 121.277 19.2426 121.481 19.4241C121.685 19.6055 121.945 19.6955 122.256 19.6955C122.603 19.6955 122.929 19.5878 123.225 19.3739C123.523 19.1586 123.706 18.8857 123.774 18.5509C123.791 18.4756 123.8 18.3842 123.8 18.2795Z" fill="white"/>
  <path d="M134.455 20.669H133.048L132.974 19.5524H132.93C132.481 20.402 131.715 20.8268 130.64 20.8268C129.78 20.8268 129.065 20.4979 128.497 19.84C127.93 19.1822 127.647 18.3281 127.647 17.2794C127.647 16.154 127.954 15.2424 128.572 14.5462C129.169 13.8972 129.901 13.5727 130.773 13.5727C131.73 13.5727 132.4 13.8869 132.782 14.5167H132.812V10.5254H134.399V18.7957C134.399 19.4727 134.417 20.0967 134.455 20.669ZM132.812 17.7367V16.5773C132.812 16.3767 132.797 16.2145 132.768 16.0906C132.679 15.7189 132.487 15.4062 132.195 15.1539C131.9 14.9017 131.544 14.7749 131.134 14.7749C130.543 14.7749 130.08 15.0035 129.739 15.4622C129.402 15.9209 129.231 16.5065 129.231 17.2219C129.231 17.9092 129.393 18.4668 129.718 18.896C130.062 19.3533 130.525 19.5819 131.104 19.5819C131.624 19.5819 132.04 19.3916 132.357 19.0096C132.662 18.6571 132.812 18.2323 132.812 17.7367Z" fill="white"/>
  <path d="M148.014 17.1349C148.014 18.2042 147.701 19.0804 147.075 19.7677C146.418 20.4743 145.55 20.8268 144.462 20.8268C143.417 20.8268 142.583 20.489 141.96 19.8105C141.34 19.1335 141.03 18.2795 141.03 17.2499C141.03 16.1732 141.349 15.2896 141.99 14.6038C142.632 13.9179 143.494 13.5742 144.582 13.5742C145.627 13.5742 146.47 13.912 147.105 14.589C147.71 15.2469 148.014 16.0965 148.014 17.1349ZM146.371 17.185C146.371 16.5434 146.229 15.9932 145.946 15.5345C145.612 14.9799 145.14 14.7026 144.523 14.7026C143.887 14.7026 143.403 14.9799 143.069 15.5345C142.784 15.9932 142.644 16.5522 142.644 17.213C142.644 17.8547 142.786 18.4048 143.069 18.8636C143.412 19.4182 143.89 19.6955 144.508 19.6955C145.113 19.6955 145.589 19.4137 145.931 18.8488C146.223 18.3812 146.371 17.8266 146.371 17.185Z" fill="white"/>
  <path d="M156.539 20.669H154.955V16.6865C154.955 15.4593 154.477 14.8457 153.516 14.8457C153.046 14.8457 152.666 15.0138 152.373 15.3516C152.079 15.6894 151.933 16.0876 151.933 16.5434V20.6675H150.346V15.7027C150.346 15.092 150.327 14.4297 150.29 13.7129H151.681L151.756 14.8H151.799C151.985 14.4622 152.261 14.1834 152.621 13.9607C153.052 13.7011 153.532 13.5698 154.06 13.5698C154.724 13.5698 155.277 13.7793 155.718 14.1996C156.267 14.7144 156.539 15.4829 156.539 16.5036V20.669Z" fill="white"/>
  <path d="M167.209 14.8737H165.463V18.2514C165.463 19.1099 165.773 19.5391 166.387 19.5391C166.672 19.5391 166.908 19.5155 167.094 19.4668L167.135 20.6394C166.822 20.7545 166.41 20.812 165.903 20.812C165.277 20.812 164.79 20.6262 164.437 20.2545C164.083 19.8828 163.908 19.2574 163.908 18.3797V14.8737H162.866V13.7158H163.908V12.4414L165.462 11.9841V13.7143H167.207V14.8737H167.209Z" fill="white"/>
  <path d="M175.602 20.669H174.015V16.716C174.015 15.4696 173.537 14.8457 172.579 14.8457C171.844 14.8457 171.342 15.207 171.067 15.9298C171.02 16.0817 170.992 16.2676 170.992 16.4859V20.6675H169.409V10.5254H170.992V14.7159H171.023C171.522 13.9533 172.238 13.5727 173.165 13.5727C173.821 13.5727 174.365 13.7822 174.796 14.2026C175.333 14.7262 175.602 15.505 175.602 16.5345V20.669Z" fill="white"/>
  <path d="M184.26 16.8636C184.26 17.1409 184.239 17.3739 184.201 17.5642H179.446C179.467 18.2515 179.694 18.7752 180.135 19.138C180.537 19.4625 181.056 19.6248 181.691 19.6248C182.395 19.6248 183.036 19.5156 183.614 19.2958L183.862 20.3696C183.186 20.6558 182.39 20.7989 181.469 20.7989C180.364 20.7989 179.495 20.4817 178.865 19.8475C178.233 19.2132 177.92 18.3622 177.92 17.2943C177.92 16.2455 178.212 15.3723 178.8 14.6761C179.414 13.9327 180.245 13.561 181.293 13.561C182.319 13.561 183.098 13.9327 183.625 14.6761C184.05 15.2661 184.26 15.9963 184.26 16.8636ZM182.747 16.4638C182.759 16.0051 182.655 15.6098 182.44 15.2765C182.165 14.8472 181.746 14.6319 181.178 14.6319C180.661 14.6319 180.239 14.8413 179.917 15.2617C179.653 15.5965 179.498 15.9963 179.446 16.4638H182.747Z" fill="white"/>
</svg>