<svg xmlns="http://www.w3.org/2000/svg" width="205" height="60" viewBox="0 0 205 60" fill="none">
  <path d="M197.342 59.8552H8.49914C4.34649 59.8552 0.945435 56.5346 0.945435 52.4802V8.23023C0.945435 4.17582 4.34649 0.855225 8.49914 0.855225H197.342C201.494 0.855225 204.895 4.17582 204.895 8.23023V52.4802C204.895 56.5346 201.494 59.8552 197.342 59.8552Z" fill="black"/>
  <path d="M197.342 2.03707C200.839 2.03707 203.685 4.8156 203.685 8.23023V52.4802C203.685 55.8948 200.839 58.6734 197.342 58.6734H8.49914C5.00177 58.6734 2.15592 55.8948 2.15592 52.4802V8.23023C2.15592 4.8156 5.00177 2.03707 8.49914 2.03707H197.342ZM197.342 0.855225H8.49914C4.34649 0.855225 0.945435 4.17582 0.945435 8.23023V52.4802C0.945435 56.5346 4.34649 59.8552 8.49914 59.8552H197.342C201.494 59.8552 204.895 56.5346 204.895 52.4802V8.23023C204.895 4.17582 201.494 0.855225 197.342 0.855225Z" fill="#6E7979"/>
  <path d="M72.581 15.9649C72.581 17.1965 72.2033 18.1829 71.4593 18.9185C70.6038 19.7906 69.4896 20.2294 68.1243 20.2294C66.8194 20.2294 65.7052 19.7833 64.7912 18.9038C63.8753 18.0114 63.4183 16.9162 63.4183 15.6053C63.4183 14.2944 63.8753 13.1992 64.7912 12.3142C65.7052 11.4274 66.8194 10.9812 68.1243 10.9812C68.7739 10.9812 69.3933 11.1121 69.9844 11.3555C70.5736 11.6007 71.0532 11.9326 71.4007 12.3419L70.6113 13.12C70.0052 12.4212 69.1799 12.0764 68.1243 12.0764C67.1725 12.0764 66.3473 12.4009 65.6467 13.0554C64.9536 13.7118 64.6062 14.5618 64.6062 15.6053C64.6062 16.6489 64.9536 17.5062 65.6467 18.1626C66.3473 18.8098 67.1725 19.1416 68.1243 19.1416C69.1346 19.1416 69.9844 18.8098 70.6548 18.1552C71.0967 17.7219 71.3478 17.1246 71.4139 16.3613H68.1243V15.2956H72.513C72.5659 15.526 72.581 15.7491 72.581 15.9649Z" fill="white" stroke="white" stroke-width="0.16" stroke-miterlimit="10"/>
  <path d="M79.5436 12.2698H75.4212V15.0723H79.1376V16.138H75.4212V18.9405H79.5436V20.0265H74.2542V11.1838H79.5436V12.2698Z" fill="white" stroke="white" stroke-width="0.16" stroke-miterlimit="10"/>
  <path d="M84.4572 20.0265H83.2902V12.2698H80.7616V11.1838H86.9877V12.2698H84.4572V20.0265Z" fill="white" stroke="white" stroke-width="0.16" stroke-miterlimit="10"/>
  <path d="M91.4936 20.0265V11.1838H92.6588V20.0265H91.4936Z" fill="white" stroke="white" stroke-width="0.16" stroke-miterlimit="10"/>
  <path d="M97.8236 20.0265H96.666V12.2698H94.1279V11.1838H100.362V12.2698H97.8236V20.0265Z" fill="white" stroke="white" stroke-width="0.16" stroke-miterlimit="10"/>
  <path d="M112.149 18.889C111.256 19.7833 110.149 20.2294 108.829 20.2294C107.502 20.2294 106.395 19.7833 105.502 18.889C104.611 17.9967 104.167 16.9015 104.167 15.6053C104.167 14.3092 104.611 13.214 105.502 12.3216C106.395 11.4274 107.502 10.9812 108.829 10.9812C110.142 10.9812 111.248 11.4274 112.142 12.329C113.041 13.2287 113.484 14.3165 113.484 15.6053C113.484 16.9015 113.041 17.9967 112.149 18.889ZM106.365 18.1479C107.037 18.8098 107.855 19.1416 108.829 19.1416C109.796 19.1416 110.621 18.8098 111.286 18.1479C111.957 17.4859 112.296 16.636 112.296 15.6053C112.296 14.5747 111.957 13.7247 111.286 13.0628C110.621 12.4009 109.796 12.069 108.829 12.069C107.855 12.069 107.037 12.4009 106.365 13.0628C105.695 13.7247 105.355 14.5747 105.355 15.6053C105.355 16.636 105.695 17.4859 106.365 18.1479Z" fill="white" stroke="white" stroke-width="0.16" stroke-miterlimit="10"/>
  <path d="M115.122 20.0265V11.1838H116.538L120.942 18.061H120.993L120.942 16.3611V11.1838H122.107V20.0265H120.891L116.279 12.81H116.228L116.279 14.5173V20.0265H115.122Z" fill="white" stroke="white" stroke-width="0.16" stroke-miterlimit="10"/>
  <path d="M103.88 32.9403C100.331 32.9403 97.4327 35.5768 97.4327 39.2145C97.4327 42.8228 100.331 45.487 103.88 45.487C107.436 45.487 110.334 42.8228 110.334 39.2145C110.334 35.5768 107.436 32.9403 103.88 32.9403ZM103.88 43.0164C101.933 43.0164 100.258 41.4473 100.258 39.2145C100.258 36.9523 101.933 35.4109 103.88 35.4109C105.827 35.4109 107.509 36.9523 107.509 39.2145C107.509 41.4473 105.827 43.0164 103.88 43.0164ZM89.8129 32.9403C86.2569 32.9403 83.3658 35.5768 83.3658 39.2145C83.3658 42.8228 86.2569 45.487 89.8129 45.487C93.3669 45.487 96.2599 42.8228 96.2599 39.2145C96.2599 35.5768 93.3669 32.9403 89.8129 32.9403ZM89.8129 43.0164C87.864 43.0164 86.1833 41.4473 86.1833 39.2145C86.1833 36.9523 87.864 35.4109 89.8129 35.4109C91.7598 35.4109 93.4349 36.9523 93.4349 39.2145C93.4349 41.4473 91.7598 43.0164 89.8129 43.0164ZM73.0739 34.8633V37.5294H79.5946C79.4039 39.0191 78.894 40.1143 78.1122 40.8776C77.1604 41.7995 75.678 42.8228 73.0739 42.8228C69.0609 42.8228 65.9186 39.6607 65.9186 35.7428C65.9186 31.8248 69.0609 28.6628 73.0739 28.6628C75.2437 28.6628 76.8224 29.4906 77.9875 30.5637L79.9118 28.6849C78.2821 27.1656 76.1142 25.9985 73.0739 25.9985C67.571 25.9985 62.9462 30.3701 62.9462 35.7428C62.9462 41.1154 67.571 45.487 73.0739 45.487C76.0481 45.487 78.2821 44.5356 80.0384 42.7508C81.838 40.9938 82.3989 38.5231 82.3989 36.5282C82.3989 35.9087 82.346 35.339 82.2516 34.8633H73.0739ZM141.522 36.9301C140.991 35.527 139.354 32.9403 136.019 32.9403C132.714 32.9403 129.963 35.4828 129.963 39.2145C129.963 42.7287 132.686 45.487 136.336 45.487C139.288 45.487 140.991 43.7299 141.692 42.7066L139.501 41.2814C138.77 42.3249 137.775 43.0164 136.336 43.0164C134.907 43.0164 133.881 42.3766 133.224 41.1154L141.818 37.6437L141.522 36.9301ZM132.759 39.0191C132.686 36.6001 134.684 35.3611 136.115 35.3611C137.237 35.3611 138.189 35.9087 138.506 36.6923L132.759 39.0191ZM125.774 45.1053H128.599V26.6678H125.774V45.1053ZM121.148 34.3378H121.053C120.419 33.604 119.208 32.9403 117.675 32.9403C114.457 32.9403 111.515 35.6985 111.515 39.2348C111.515 42.7508 114.457 45.487 117.675 45.487C119.208 45.487 120.419 44.8177 121.053 44.0618H121.148V44.9615C121.148 47.3602 119.835 48.649 117.718 48.649C115.992 48.649 114.921 47.4321 114.479 46.4088L112.023 47.41C112.731 49.0731 114.606 51.1196 117.718 51.1196C121.03 51.1196 123.825 49.2169 123.825 44.5872V33.3219H121.148V34.3378ZM117.916 43.0164C115.969 43.0164 114.34 41.4252 114.34 39.2348C114.34 37.0242 115.969 35.4109 117.916 35.4109C119.835 35.4109 121.348 37.0242 121.348 39.2348C121.348 41.4252 119.835 43.0164 117.916 43.0164ZM154.748 26.6678H147.991V45.1053H150.809V38.1194H154.748C157.877 38.1194 160.946 35.9087 160.946 32.3927C160.946 28.8785 157.87 26.6678 154.748 26.6678ZM154.822 35.5547H150.809V29.2325H154.822C156.926 29.2325 158.127 30.9379 158.127 32.3927C158.127 33.8197 156.926 35.5547 154.822 35.5547ZM172.239 32.9052C170.203 32.9052 168.086 33.7829 167.216 35.728L169.716 36.7513C170.254 35.728 171.244 35.3961 172.29 35.3961C173.751 35.3961 175.234 36.2535 175.257 37.7672V37.9608C174.747 37.6732 173.655 37.2473 172.313 37.2473C169.62 37.2473 166.876 38.6946 166.876 41.3957C166.876 43.8663 169.081 45.4575 171.561 45.4575C173.457 45.4575 174.503 44.6223 175.16 43.6506H175.257V45.0758H177.978V38.0032C177.978 34.7342 175.478 32.9052 172.239 32.9052ZM171.899 43.009C170.977 43.009 169.693 42.5628 169.693 41.4473C169.693 40.0203 171.295 39.4727 172.681 39.4727C173.921 39.4727 174.503 39.74 175.257 40.0922C175.036 41.7995 173.531 43.009 171.899 43.009ZM187.892 33.309L184.653 41.3017H184.557L181.209 33.309H178.17L183.201 44.4784L180.331 50.6937H183.275L191.027 33.309H187.892ZM162.495 45.1053H165.32V26.6678H162.495V45.1053Z" fill="white"/>
  <path d="M16.71 11.9749C16.2662 12.4285 16.0094 13.1346 16.0094 14.0491V46.6687C16.0094 47.5832 16.2662 48.2894 16.71 48.743L16.8195 48.8425L35.5414 30.571V30.1395L16.8195 11.868L16.71 11.9749Z" fill="url(#paint0_linear_45_7224)"/>
  <path d="M41.7751 36.6646L35.5414 30.571V30.1395L41.7826 24.0459L41.9224 24.1252L49.3137 28.2312C51.423 29.3965 51.423 31.314 49.3137 32.4866L41.9224 36.5853L41.7751 36.6646Z" fill="url(#paint1_linear_45_7224)"/>
  <path d="M41.9224 36.5854L35.5414 30.3553L16.71 48.7431C17.4106 49.4621 18.5531 49.5488 19.8524 48.8297L41.9224 36.5854Z" fill="url(#paint2_linear_45_7224)"/>
  <path d="M41.9224 24.1252L19.8524 11.8809C18.5531 11.1692 17.4106 11.2558 16.71 11.9749L35.5414 30.3552L41.9224 24.1252Z" fill="url(#paint3_linear_45_7224)"/>
  <defs>
    <linearGradient id="paint0_linear_45_7224" x1="33.8791" y1="47.0084" x2="9.13217" y2="21.6619" gradientUnits="userSpaceOnUse">
      <stop stop-color="#00A0FF"/>
      <stop offset="0.0066" stop-color="#00A1FF"/>
      <stop offset="0.2601" stop-color="#00BEFF"/>
      <stop offset="0.5122" stop-color="#00D2FF"/>
      <stop offset="0.7604" stop-color="#00DFFF"/>
      <stop offset="1" stop-color="#00E3FF"/>
    </linearGradient>
    <linearGradient id="paint1_linear_45_7224" x1="52.0604" y1="30.3532" x2="15.5052" y2="30.3532" gradientUnits="userSpaceOnUse">
      <stop stop-color="#FFE000"/>
      <stop offset="0.4087" stop-color="#FFBD00"/>
      <stop offset="0.7754" stop-color="#FFA500"/>
      <stop offset="1" stop-color="#FF9C00"/>
    </linearGradient>
    <linearGradient id="paint2_linear_45_7224" x1="38.4526" y1="26.9686" x2="4.89373" y2="-7.40345" gradientUnits="userSpaceOnUse">
      <stop stop-color="#FF3A44"/>
      <stop offset="1" stop-color="#C31162"/>
    </linearGradient>
    <linearGradient id="paint3_linear_45_7224" x1="11.9698" y1="59.5953" x2="26.9553" y2="44.2468" gradientUnits="userSpaceOnUse">
      <stop stop-color="#32A071"/>
      <stop offset="0.0685" stop-color="#2DA771"/>
      <stop offset="0.4762" stop-color="#15CF74"/>
      <stop offset="0.8009" stop-color="#06E775"/>
      <stop offset="1" stop-color="#00F076"/>
    </linearGradient>
  </defs>
</svg>