<svg xmlns="http://www.w3.org/2000/svg" width="100" height="101" viewBox="0 0 100 101" fill="none">
  <path d="M40.2184 43.4618C45.0022 36.7303 54.9977 36.7303 59.7815 43.4618L76.5523 67.0609C82.7406 75.7687 75.3216 87.6138 64.786 85.8469L51.8715 83.6811C50.554 83.4602 49.2088 83.4608 47.8914 83.6829L35.2457 85.8153C24.7065 87.5925 17.2775 75.7431 23.4688 67.031L40.2184 43.4618Z" fill="#FEF7FF"/>
  <path d="M80.8044 45.1886C77.1008 50.6846 71.1282 53.1384 67.4642 50.6693C63.8002 48.2003 63.8323 41.7433 67.5359 36.2473C71.2395 30.7513 77.2121 28.2975 80.8761 30.7665C84.5401 33.2356 84.508 39.6925 80.8044 45.1886Z" fill="white"/>
  <path d="M18.2005 45.1886C21.9041 50.6846 27.8767 53.1384 31.5407 50.6693C35.2047 48.2003 35.1726 41.7433 31.4691 36.2473C27.7655 30.7513 21.7929 28.2975 18.1289 30.7665C14.4648 33.2356 14.4969 39.6925 18.2005 45.1886Z" fill="white"/>
  <path d="M70.2396 29.0524C68.1084 36.4848 62.0769 41.276 56.768 39.7537C51.4591 38.2314 48.8831 30.9721 51.0143 23.5396C53.1456 16.1072 59.177 11.316 64.4859 12.8383C69.7948 14.3606 72.3708 21.6199 70.2396 29.0524Z" fill="#F6FAF9"/>
  <path d="M28.7654 29.0523C30.8966 36.4847 36.928 41.2759 42.2369 39.7536C47.5458 38.2313 50.1218 30.972 47.9906 23.5395C45.8594 16.1071 39.828 11.3159 34.5191 12.8382C29.2102 14.3605 26.6341 21.6198 28.7654 29.0523Z" fill="#F6FAF9"/>
  <path fill-rule="evenodd" clip-rule="evenodd" d="M89.4748 72.7909L79.5048 73.5657L79.4273 72.5687L89.3973 71.794L89.4748 72.7909Z" fill="white"/>
  <path fill-rule="evenodd" clip-rule="evenodd" d="M86.7988 77.9806L79.2148 75.11L79.5688 74.1748L87.1527 77.0453L86.7988 77.9806Z" fill="white"/>
  <path fill-rule="evenodd" clip-rule="evenodd" d="M79.4066 71.6417L86.3407 67.4376L85.8223 66.5825L78.8882 70.7866L79.4066 71.6417Z" fill="white"/>
  <path fill-rule="evenodd" clip-rule="evenodd" d="M10.4621 73.6633L20.4321 74.438L20.5095 73.441L10.5396 72.6663L10.4621 73.6633Z" fill="white"/>
  <path fill-rule="evenodd" clip-rule="evenodd" d="M13.1381 78.8529L20.722 75.9823L20.3681 75.0471L12.7841 77.9176L13.1381 78.8529Z" fill="white"/>
  <path fill-rule="evenodd" clip-rule="evenodd" d="M20.5303 72.514L13.5962 68.3099L14.1146 67.4548L21.0487 71.6589L20.5303 72.514Z" fill="white"/>
</svg>