<svg width="24" height="25" viewBox="0 0 24 25" fill="none" xmlns="http://www.w3.org/2000/svg">
<path d="M6 3.68848H17V16.6885L10 23.6885L8.75 22.4385C8.63333 22.3218 8.5375 22.1635 8.4625 21.9635C8.3875 21.7635 8.35 21.5718 8.35 21.3885V21.0385L9.45 16.6885H3C2.46667 16.6885 2 16.4885 1.6 16.0885C1.2 15.6885 1 15.2218 1 14.6885V12.6885C1 12.5718 1.01667 12.4468 1.05 12.3135C1.08333 12.1801 1.11667 12.0551 1.15 11.9385L4.15 4.88848C4.3 4.55514 4.55 4.27181 4.9 4.03848C5.25 3.80514 5.61667 3.68848 6 3.68848ZM15 5.68848H6L3 12.6885V14.6885H12L10.65 20.1885L15 15.8385V5.68848ZM17 16.6885V14.6885H20V5.68848H17V3.68848H22V16.6885H17Z" fill="#757777"/>
</svg>
