<svg width="24" height="25" viewBox="0 0 24 25" fill="none" xmlns="http://www.w3.org/2000/svg">
<path d="M18 21.6885H7V8.68848L14 1.68848L15.25 2.93848C15.3667 3.05514 15.4625 3.21348 15.5375 3.41348C15.6125 3.61348 15.65 3.80514 15.65 3.98848V4.33848L14.55 8.68848H21C21.5333 8.68848 22 8.88848 22.4 9.28848C22.8 9.68848 23 10.1551 23 10.6885V12.6885C23 12.8051 22.9833 12.9301 22.95 13.0635C22.9167 13.1968 22.8833 13.3218 22.85 13.4385L19.85 20.4885C19.7 20.8218 19.45 21.1051 19.1 21.3385C18.75 21.5718 18.3833 21.6885 18 21.6885ZM9 19.6885H18L21 12.6885V10.6885H12L13.35 5.18848L9 9.53848V19.6885ZM7 8.68848V10.6885H4V19.6885H7V21.6885H2V8.68848H7Z" fill="#757777"/>
</svg>
