<svg width="24" height="25" viewBox="0 0 24 25" fill="none" xmlns="http://www.w3.org/2000/svg">
<g filter="url(#filter0_b_71_556)">
<rect y="0.688477" width="24" height="24" rx="4" fill="white" fill-opacity="0.3"/>
<path d="M12 21.6885L10.55 20.3885C8.86667 18.8718 7.475 17.5635 6.375 16.4635C5.275 15.3635 4.4 14.376 3.75 13.501C3.1 12.626 2.64583 11.8218 2.3875 11.0885C2.12917 10.3552 2 9.60517 2 8.8385C2 7.27183 2.525 5.9635 3.575 4.9135C4.625 3.8635 5.93333 3.3385 7.5 3.3385C8.36667 3.3385 9.19167 3.52183 9.975 3.8885C10.7583 4.25517 11.4333 4.77183 12 5.4385C12.5667 4.77183 13.2417 4.25517 14.025 3.8885C14.8083 3.52183 15.6333 3.3385 16.5 3.3385C18.0667 3.3385 19.375 3.8635 20.425 4.9135C21.475 5.9635 22 7.27183 22 8.8385C22 9.60517 21.8708 10.3552 21.6125 11.0885C21.3542 11.8218 20.9 12.626 20.25 13.501C19.6 14.376 18.725 15.3635 17.625 16.4635C16.525 17.5635 15.1333 18.8718 13.45 20.3885L12 21.6885ZM12 18.9885C13.6 17.5552 14.9167 16.326 15.95 15.301C16.9833 14.276 17.8 13.3843 18.4 12.626C19 11.8677 19.4167 11.1927 19.65 10.601C19.8833 10.0093 20 9.42183 20 8.8385C20 7.8385 19.6667 7.00517 19 6.3385C18.3333 5.67183 17.5 5.3385 16.5 5.3385C15.7167 5.3385 14.9917 5.55933 14.325 6.001C13.6583 6.44267 13.2 7.00517 12.95 7.6885H11.05C10.8 7.00517 10.3417 6.44267 9.675 6.001C9.00833 5.55933 8.28333 5.3385 7.5 5.3385C6.5 5.3385 5.66667 5.67183 5 6.3385C4.33333 7.00517 4 7.8385 4 8.8385C4 9.42183 4.11667 10.0093 4.35 10.601C4.58333 11.1927 5 11.8677 5.6 12.626C6.2 13.3843 7.01667 14.276 8.05 15.301C9.08333 16.326 10.4 17.5552 12 18.9885Z" fill="#AC332A"/>
</g>
<defs>
<filter id="filter0_b_71_556" x="-4" y="-3.31152" width="32" height="32" filterUnits="userSpaceOnUse" color-interpolation-filters="sRGB">
<feFlood flood-opacity="0" result="BackgroundImageFix"/>
<feGaussianBlur in="BackgroundImageFix" stdDeviation="2"/>
<feComposite in2="SourceAlpha" operator="in" result="effect1_backgroundBlur_71_556"/>
<feBlend mode="normal" in="SourceGraphic" in2="effect1_backgroundBlur_71_556" result="shape"/>
</filter>
</defs>
</svg>
