<svg width="100" height="21" viewBox="0 0 100 21" fill="none" xmlns="http://www.w3.org/2000/svg">
<path d="M10 2.3551L12.575 7.57177L18.3333 8.41344L14.1667 12.4718L15.15 18.2051L10 15.4968L4.85 18.2051L5.83333 12.4718L1.66667 8.41344L7.425 7.57177L10 2.3551Z" fill="#FF8376" stroke="#FF8376" stroke-width="2" stroke-linecap="round" stroke-linejoin="round"/>
<path d="M30 2.3551L32.575 7.57177L38.3333 8.41344L34.1667 12.4718L35.15 18.2051L30 15.4968L24.85 18.2051L25.8333 12.4718L21.6667 8.41344L27.425 7.57177L30 2.3551Z" fill="#FF8376" stroke="#FF8376" stroke-width="2" stroke-linecap="round" stroke-linejoin="round"/>
<path d="M50 2.3551L52.575 7.57177L58.3333 8.41344L54.1667 12.4718L55.15 18.2051L50 15.4968L44.85 18.2051L45.8333 12.4718L41.6667 8.41344L47.425 7.57177L50 2.3551Z" fill="#FF8376" stroke="#FF8376" stroke-width="2" stroke-linecap="round" stroke-linejoin="round"/>
<path d="M70 2.3551L72.575 7.57177L78.3333 8.41344L74.1667 12.4718L75.15 18.2051L70 15.4968L64.85 18.2051L65.8333 12.4718L61.6667 8.41344L67.425 7.57177L70 2.3551Z" fill="#FF8376" stroke="#FF8376" stroke-width="2" stroke-linecap="round" stroke-linejoin="round"/>
<path d="M90 2.3551L92.575 7.57177L98.3333 8.41344L94.1667 12.4718L95.15 18.2051L90 15.4968L84.85 18.2051L85.8333 12.4718L81.6667 8.41344L87.425 7.57177L90 2.3551Z" stroke="#FF8376" stroke-width="2" stroke-linecap="round" stroke-linejoin="round"/>
</svg>
