<svg width="16" height="16" viewBox="0 0 16 16" fill="none" xmlns="http://www.w3.org/2000/svg">
<rect y="-0.00195312" width="16" height="16" rx="8" fill="#B3261E"/>
<path d="M10.707 10.9668V11.998H5.46484V11.1118L8.01074 8.33496C8.29004 8.01986 8.51025 7.74772 8.67139 7.51855C8.83252 7.28939 8.94531 7.0835 9.00977 6.90088C9.0778 6.71468 9.11182 6.53385 9.11182 6.3584C9.11182 6.11133 9.06527 5.89469 8.97217 5.7085C8.88265 5.51872 8.75016 5.37012 8.57471 5.2627C8.39925 5.15169 8.1862 5.09619 7.93555 5.09619C7.64551 5.09619 7.40202 5.15885 7.20508 5.28418C7.00814 5.40951 6.85954 5.58317 6.75928 5.80518C6.65902 6.0236 6.60889 6.27425 6.60889 6.55713H5.31445C5.31445 6.10238 5.41829 5.68701 5.62598 5.31104C5.83366 4.93148 6.13444 4.6307 6.52832 4.40869C6.9222 4.18311 7.39665 4.07031 7.95166 4.07031C8.47445 4.07031 8.91846 4.15804 9.28369 4.3335C9.64893 4.50895 9.92643 4.75781 10.1162 5.08008C10.3096 5.40234 10.4062 5.78369 10.4062 6.22412C10.4062 6.46761 10.3669 6.70931 10.2881 6.94922C10.2093 7.18913 10.0965 7.42904 9.94971 7.66895C9.80648 7.90527 9.63639 8.14339 9.43945 8.3833C9.24251 8.61963 9.02588 8.85954 8.78955 9.10303L7.09766 10.9668H10.707Z" fill="white"/>
</svg>
