<svg xmlns="http://www.w3.org/2000/svg" width="24" height="25" viewBox="0 0 24 25" fill="none">
  <rect y="0.688477" width="24" height="24" rx="12" fill="#008080"/>
  <path fill-rule="evenodd" clip-rule="evenodd" d="M15.6001 10.2885C15.6001 12.2767 13.9884 13.8885 12.0001 13.8885C10.0119 13.8885 8.40015 12.2767 8.40015 10.2885C8.40015 8.30025 10.0119 6.68848 12.0001 6.68848C13.9884 6.68848 15.6001 8.30025 15.6001 10.2885ZM14.4001 10.2885C14.4001 11.614 13.3256 12.6885 12.0001 12.6885C10.6747 12.6885 9.60015 11.614 9.60015 10.2885C9.60015 8.96299 10.6747 7.88848 12.0001 7.88848C13.3256 7.88848 14.4001 8.96299 14.4001 10.2885Z" fill="white"/>
  <path d="M12.0001 15.6885C8.11552 15.6885 4.80571 17.9855 3.54492 21.2037C3.85206 21.5087 4.1756 21.7972 4.51412 22.0677C5.45296 19.1131 8.39818 16.8885 12.0001 16.8885C15.6021 16.8885 18.5473 19.1131 19.4862 22.0677C19.8247 21.7972 20.1482 21.5087 20.4554 21.2037C19.1946 17.9855 15.8848 15.6885 12.0001 15.6885Z" fill="white"/>
</svg>